<?xml version="1.0" encoding="UTF-8" standalone="no"?>
<svg
   xmlns:dc="http://purl.org/dc/elements/1.1/"
   xmlns:cc="http://creativecommons.org/ns#"
   xmlns:rdf="http://www.w3.org/1999/02/22-rdf-syntax-ns#"
   xmlns:svg="http://www.w3.org/2000/svg"
   xmlns="http://www.w3.org/2000/svg"
   xmlns:sodipodi="http://sodipodi.sourceforge.net/DTD/sodipodi-0.dtd"
   xmlns:inkscape="http://www.inkscape.org/namespaces/inkscape"
   width="25mm"
   height="25mm"
   viewBox="0 0 25 25"
   version="1.1"
   id="svg5221"
   inkscape:version="1.0.1 (3bc2e813f5, 2020-09-07)"
   sodipodi:docname="checklist.svg">
  <defs
     id="defs5215" />
  <sodipodi:namedview
     id="base"
     pagecolor="#ffffff"
     bordercolor="#666666"
     borderopacity="1.0"
     inkscape:pageopacity="0.0"
     inkscape:pageshadow="2"
     inkscape:zoom="1.4"
     inkscape:cx="0.81818086"
     inkscape:cy="81.193671"
     inkscape:document-units="mm"
     inkscape:current-layer="g8282"
     inkscape:document-rotation="0"
     showgrid="false"
     inkscape:window-width="1267"
     inkscape:window-height="720"
     inkscape:window-x="83"
     inkscape:window-y="0"
     inkscape:window-maximized="0" />
  <metadata
     id="metadata5218">
    <rdf:RDF>
      <cc:Work
         rdf:about="">
        <dc:format>image/svg+xml</dc:format>
        <dc:type
           rdf:resource="http://purl.org/dc/dcmitype/StillImage" />
        <dc:title></dc:title>
      </cc:Work>
    </rdf:RDF>
  </metadata>
  <g
     inkscape:label="Layer 1"
     inkscape:groupmode="layer"
     id="layer1">
    <g
       id="g8282"
       transform="matrix(0.26458333,0,0,0.26458333,2.9986367,1.9032751)">
      <path
         fill="#000000"
         d="m 74.614283,15.524396 -1.16376,2.612507 -8.565855,10.719198 -0.438055,0.527779 -3.884453,4.826542 -1.91584,2.44098 -2.024034,2.488479 -12.946427,16.081436 -1.366948,1.688894 -2.884314,3.602091 -2.15334,2.646815 -1.995006,2.493757 -3.356676,4.148345 -0.701947,0.844448 q -1.754866,2.053063 -4.187928,2.617785 -2.660009,0.606947 -5.209182,-0.57 -1.250837,-0.672917 -2.306396,-1.712647 L 16.608697,67.711216 14.898692,65.84024 11.201598,61.699805 10.349234,60.689111 Q 5.9581103,55.759652 1.6197643,50.904082 -0.53357571,48.497409 -0.07704671,44.871565 L 0.40851028,43.140449 Q 1.5880973,41.113776 3.1978243,40.058217 l 2.520146,-1.008058 q 2.70223,-0.424863 4.9057087,0.585834 l 0.831253,0.382641 q 1.026531,0.665001 1.348476,1.021252 5.926962,6.57877 11.956841,13.371289 0.179444,0.200557 0.345695,-0.0079 l 12.001702,-14.880738 0.712502,-0.878752 3.464871,-4.311957 1.670422,-2.100562 2.541257,-3.124454 2.937093,-3.660149 1.306253,-1.570144 8.658219,-10.727114 q 0.05806,-0.155695 0.163614,-0.21639 c 1.332638,-1.667782 3.00042,-3.9161223 4.85293,-4.8740419 4.074458,-2.108478 9.098916,-0.255972 10.724476,4.0533459 q 0.21375,0.567362 0.23486,1.50417 0.0211,1.02917 0.24014,1.907924 z"
         id="path6871"
         style="stroke-width:0.26389" />
    </g>
  </g>
</svg>
