<?xml version="1.0" encoding="UTF-8" standalone="no"?>
<svg
   xmlns:dc="http://purl.org/dc/elements/1.1/"
   xmlns:cc="http://creativecommons.org/ns#"
   xmlns:rdf="http://www.w3.org/1999/02/22-rdf-syntax-ns#"
   xmlns:svg="http://www.w3.org/2000/svg"
   xmlns="http://www.w3.org/2000/svg"
   xmlns:sodipodi="http://sodipodi.sourceforge.net/DTD/sodipodi-0.dtd"
   xmlns:inkscape="http://www.inkscape.org/namespaces/inkscape"
   width="140mm"
   height="107mm"
   viewBox="0 0 140 107"
   version="1.1"
   id="svg8"
   inkscape:version="1.0.1 (3bc2e813f5, 2020-09-07)"
   sodipodi:docname="upload-car.svg">
  <defs
     id="defs2">
    <clipPath
       clipPathUnits="userSpaceOnUse"
       id="clipPath2331">
      <path
         id="path2333"
         style="fill:#f5f5f5;fill-opacity:1;stroke:#ffffff;stroke-width:0;stroke-linejoin:round;stroke-miterlimit:4;stroke-dasharray:none"
         d="M 58.928071,46.071293 H 643.76213 c 16.59535,0 29.95549,14.304274 29.95549,32.072357 v 73.76637 c 0,17.76808 -13.36014,32.07234 -29.95549,32.07234 H 58.928071 c -16.595352,0 -29.955511,-14.30426 -29.955511,-32.07234 V 78.14365 c 0,-17.768083 13.360159,-32.072357 29.955511,-32.072357 z"
         sodipodi:nodetypes="sssssssss" />
    </clipPath>
    <filter
       inkscape:collect="always"
       style="color-interpolation-filters:sRGB"
       id="filter2355"
       x="-0.021187091"
       width="1.0423743"
       y="-0.039523426"
       height="1.0790468">
      <feGaussianBlur
         inkscape:collect="always"
         stdDeviation="9.2063755"
         id="feGaussianBlur2357" />
    </filter>
    <filter
       inkscape:collect="always"
       style="color-interpolation-filters:sRGB"
       id="filter2536"
       x="-0.029597001"
       width="1.059194"
       y="-0.06874682"
       height="1.1374936">
      <feGaussianBlur
         inkscape:collect="always"
         stdDeviation="2.6300526"
         id="feGaussianBlur2538" />
    </filter>
    <filter
       inkscape:collect="always"
       style="color-interpolation-filters:sRGB"
       id="filter2570"
       x="-0.023021065"
       width="1.0460421"
       y="-0.047605522"
       height="1.095211">
      <feGaussianBlur
         inkscape:collect="always"
         stdDeviation="1.2453498"
         id="feGaussianBlur2572" />
    </filter>
  </defs>
  <sodipodi:namedview
     id="base"
     pagecolor="#ffffff"
     bordercolor="#666666"
     borderopacity="1.0"
     inkscape:pageopacity="0.0"
     inkscape:pageshadow="2"
     inkscape:zoom="0.35"
     inkscape:cx="345.97397"
     inkscape:cy="264.51413"
     inkscape:document-units="mm"
     inkscape:current-layer="layer1"
     inkscape:document-rotation="0"
     showgrid="false"
     inkscape:snap-global="false"
     inkscape:window-width="1267"
     inkscape:window-height="720"
     inkscape:window-x="83"
     inkscape:window-y="0"
     inkscape:window-maximized="0"
     showguides="false"
     inkscape:guide-bbox="true">
    <sodipodi:guide
       position="34.210499,432.16453"
       orientation="0,-1"
       id="guide1430" />
    <sodipodi:guide
       position="43.832202,412.92113"
       orientation="0,-1"
       id="guide2447" />
    <sodipodi:guide
       position="47.530505,199.32738"
       orientation="0,-1"
       id="guide2552" />
    <sodipodi:guide
       position="586.80802,288.90774"
       orientation="0,-1"
       id="guide4577" />
    <sodipodi:guide
       position="542.7738,730.00596"
       orientation="0,-1"
       id="guide4579" />
  </sodipodi:namedview>
  <metadata
     id="metadata5">
    <rdf:RDF>
      <cc:Work
         rdf:about="">
        <dc:format>image/svg+xml</dc:format>
        <dc:type
           rdf:resource="http://purl.org/dc/dcmitype/StillImage" />
        <dc:title></dc:title>
      </cc:Work>
    </rdf:RDF>
  </metadata>
  <g
     inkscape:label="Layer 1"
     inkscape:groupmode="layer"
     id="layer1">
    <g
       id="g1210"
       transform="matrix(0.38729304,0,0,0.38729304,635.195,531.37606)"
       style="display:inline" />
    <path
       id="path1661"
       style="display:none;fill:#f5f5f5;fill-opacity:1;stroke:#ffffff;stroke-width:0;stroke-linejoin:round;stroke-miterlimit:4;stroke-dasharray:none"
       d="M 65.222057,134.71036 H 650.05611 c 16.59535,0 29.95551,14.30428 29.95551,32.07236 v 73.76637 c 0,17.76808 -13.36016,32.07234 -29.95551,32.07234 H 65.222057 c -16.595353,0 -29.955511,-14.30426 -29.955511,-32.07234 v -73.76637 c 0,-17.76808 13.360158,-32.07236 29.955511,-32.07236 z"
       sodipodi:nodetypes="sssssssss" />
    <path
       id="path1665"
       style="display:none;opacity:0.933908;fill:#dac3c3;fill-opacity:1;stroke:#dac3c3;stroke-width:11.2667;stroke-linejoin:round;stroke-miterlimit:4;stroke-dasharray:none;stroke-opacity:1;filter:url(#filter2355)"
       d="m -112.28887,-116.61678 c -26.84276,0 -48.45255,57.984718 -48.45255,130.010272 V 312.41607 c 0,72.02557 21.60979,130.01028 48.45255,130.01028 h 945.96108 c 26.84275,0 48.45257,-57.98471 48.45257,-130.01028 V 13.393492 c 0,-72.025554 -21.60982,-130.010272 -48.45257,-130.010272 z m 176.051744,161.697812 569.447056,-10e-7 c 32.54741,0 41.57582,21.162974 41.57582,38.268697 v 70.482142 c 0,17.10572 -11.16763,35.65097 -40.50674,35.59599 L 63.762874,188.35878 C 47.786193,188.32884 26.95782,173.9926 27.089113,153.92359 L 27.623652,72.21612 C 27.735558,55.110763 47.786166,45.081032 63.762874,45.081032 Z"
       clip-path="url(#clipPath2331)"
       sodipodi:nodetypes="ssssssssssssssssss"
       transform="translate(4.2763124,89.80256)" />
    <g
       id="g2658"
       transform="matrix(0.72708684,0,0,0.72708684,-29.427356,-97.281924)"
       inkscape:export-xdpi="96"
       inkscape:export-ydpi="96">
      <g
         id="g1428"
         transform="matrix(0.81448393,0,0,0.80143711,-82.048069,165.58945)"
         style="fill:#666666;stroke:#666666;filter:url(#filter2536)">
        <path
           fill="#555656"
           d="m 241.88529,67.859459 -32.35,0.05 c -0.94168,-0.001 -1.72182,0.73483 -1.78,1.68 -0.20667,3.12667 2.11787,7.28222 4.64454,10.56888 -2.42,0.0267 -4.50919,0.21101 -6.91454,0.25112 -0.36,0 -0.67333,0.0967 -0.94,0.29 -0.27,-2.93 -9.68,1.61 -7.29,-7.47 2.06,-7.84 4.33,-9.64 12.82,-9.77 12.71333,-0.18667 20.91333,-0.27 24.6,-0.25 2.81,0.02 7.09,0.51 7.21,4.65 z"
           id="path1366"
           sodipodi:nodetypes="cccccccccc"
           style="fill:#666666;stroke:#666666" />
        <path
           id="path1342"
           style="fill:#999999;stroke:#999999;stroke-width:0.999997"
           d="m 238.71216,44.377079 c 0,0 -9.06817,10e-4 -9.45484,10e-4 -10.03333,-0.0267 -20.11507,0.0707 -30.06173,0.11075 -6.34001,0.02 -10.74074,1.82992 -12.08074,8.18992 0.09,3.08 -2.70908,3.48037 -3.32907,6.04037 -1.54,6.31333 -3.12343,12.62035 -4.7501,18.92034 -1.79,6.92 -1.71041,12.98972 -1.49042,19.89973 0.0133,0.35332 -0.14033,0.6032 -0.46033,0.74987 -4.51999,2.110001 -4.71909,6.640731 -4.27909,11.150731 0.36,3.72 1.57942,5.5299 4.73942,7.2399 0.76245,0.40455 0.52403,1.55315 -0.34024,1.63985 -4.35,0.39 -13.29994,-1.7999 -13.74994,4.7501 -0.21,3.14 1.6908,5.03966 4.80081,5.05966 9.25332,0.06 18.51207,0.0871 27.77874,0.0801 4.38,0 7.23115,-1.35046 8.96115,-5.25046 0.27138,-0.58646 1.12105,-0.53489 1.31962,0.0801 1.29333,4.21332 3.65706,7.69862 7.19053,10.32079 5.90284,4.38047 16.567,2.88539 20.76691,-0.23874 3.23098,-2.40338 5.68243,-5.46579 6.90243,-9.71246 0.11333,-0.38667 0.49928,-0.25448 0.89928,-0.20778 5.38626,0.12556 10.47448,0.14315 15.65135,0.1384 1.58728,0.13633 1.85728,-0.57989 1.84762,-2.08855 0.0123,-1.85752 -5.10806,-1.27102 -7.98806,-1.01102 -0.41333,0.0333 -0.62045,-0.15775 -0.62045,-0.57109 l 0.0307,-27.559921 0.02,-2.17891 c 0,-0.33333 0.1657,-0.50036 0.49903,-0.50036 l 53.72017,0.02 c 0.33333,0 0.50036,0.16703 0.50036,0.50036 l -0.02,1.99877 0.0106,27.720041 c 0,0.34667 -0.17103,0.52038 -0.51103,0.52038 -13.18,0.0333 -26.33253,0.064 -39.4592,0.0907 -2.64373,0.0431 -3.15214,-0.12626 -3.16704,0.98263 -0.0243,1.80875 -0.0428,2.19701 1.62726,2.19701 17.40667,-0.007 34.82579,-0.004 52.25911,0.009 0.37334,0 0.61654,0.18039 0.72987,0.54039 1.22,3.97333 3.49832,7.18923 6.94102,9.48952 2.7842,1.86032 6.09307,2.51072 9.33002,2.65349 4.0599,0.17907 6.43542,-0.28046 8.22517,-1.07501 1.39011,-0.61713 2.1112,-1.19843 2.58454,-1.51843 3.53999,-2.36667 5.91314,-5.5763 7.11981,-9.62963 0.0933,-0.31333 0.29911,-0.46296 0.61911,-0.44966 5.54667,0.17333 11.09738,0.17333 16.65071,0 8.77,-0.28 7.60972,-10.86959 0.52972,-10.49959 -0.27112,0.0126 -0.48135,-0.2382 -0.42965,-0.51104 l 2.10018,-10.15934 c 0.0933,-0.42667 0.33654,-0.72999 0.72987,-0.90999 5.71,-2.560001 6.85964,-7.779571 2.26964,-12.319581 -0.24255,-0.23668 -0.3798,-0.56175 -0.38027,-0.90065 v -4.00022 c -2e-5,-0.32752 -0.0858,-0.6484 -0.24952,-0.93 L 358.6947,58.309869 c -1.25333,-2.08 -3.00647,-3.54986 -5.2598,-4.40985 -0.29191,-0.11143 -0.50481,-0.36998 -0.56041,-0.68049 -1.36,-7.68001 -6.37988,-8.82034 -13.66988,-8.77035 -8.27333,0.0467 -16.56599,0.04 -24.87932,-0.02 -12.62873,0.10166 -55.40878,-0.0845 -75.61333,-0.0521 z m 103.53351,3.30238 c 3.04667,0 5.24343,1.20394 6.5901,3.61062 0.28153,0.50508 -0.0822,1.12581 -0.66048,1.12881 l -156.96949,-0.0801 c -0.28549,-0.005 -0.47449,-0.29742 -0.36025,-0.55907 1.63,-3.54 4.46938,-4.06027 8.35938,-4.06027 47.67999,-0.02 95.36074,-0.033 143.04074,-0.04 z m -147.03029,8.53951 c 51.25999,-0.02 102.5205,-0.02 153.78051,0 2.66667,0 4.86209,1.10774 6.58876,3.32107 0.34,0.44667 0.23043,0.66982 -0.32957,0.66982 h -6.12977 c -0.47034,-0.003 -0.78858,0.47891 -0.60043,0.90999 l 7.31996,16.4599 c 0.15177,0.34048 0.0391,0.74205 -0.26953,0.95936 -1.15333,0.80667 -1.58628,1.93712 -1.29961,3.39045 0.08,0.39333 0.31652,0.58304 0.70985,0.56974 2.09,-0.06 16.38022,-1.47936 15.06022,2.72064 -0.19077,0.58994 -0.74096,0.98978 -1.36098,0.99005 l -185.1592,-0.0107 c -1.60894,-6.9e-4 -2.79245,-1.50328 -2.40975,-3.05955 1.60001,-6.54 3.29569,-13.43763 5.08902,-20.69096 1.3,-5.3 3.58051,-6.22984 9.01052,-6.22984 z m 158.92022,7.2399 h 3.23967 c 0.34001,0 0.59657,0.14699 0.7699,0.44032 l 8.57019,14.73999 c 0.22,0.38 0.11043,0.56974 -0.32957,0.56974 l -7.08112,0.0507 c -0.37333,0 -0.56976,-0.18707 -0.58976,-0.5604 -0.007,-0.18 0.0468,-0.36975 0.16012,-0.56974 0.16,-0.27334 0.18404,-0.55662 0.0707,-0.84996 l -5.18107,-13.26957 c -0.14668,-0.36667 -0.0224,-0.55107 0.37093,-0.55107 z m -172.9904,25.77063 65.99038,0.32023 c 0.35332,0 0.53205,0.17639 0.53905,0.52972 l 0.0507,2.26964 -0.0801,27.359781 c -0.0165,0.65254 -0.89982,0.84064 -1.17952,0.25085 -3.23001,-7.15 -3.52027,-9.76052 -12.35027,-9.94052 -7.14,-0.14667 -14.27681,-0.12261 -21.41014,0.0707 -4.21,0.11999 -6.57004,1.5297 -8.35004,5.1197 -0.16667,0.32667 -0.43391,0.48969 -0.80058,0.48969 l -22.26009,0.0307 c -0.36,0 -0.53906,-0.1844 -0.53906,-0.55106 v -22.669731 -2.89943 c 0.007,-0.25333 0.13629,-0.38027 0.38962,-0.38027 z m 179.56048,0.10008 8.86909,0.009 c 0.41999,0 0.58706,0.20712 0.50036,0.62044 l -0.44032,2.18959 c -1.42667,6.99999 -2.81902,13.933701 -4.17902,20.800371 -0.28,1.39333 -0.62341,2.45965 -1.03008,3.19964 -0.4333,0.78667 -0.60434,0.73055 -0.51104,-0.16945 0.82667,-7.8 -0.12607,-15.63967 -2.8594,-23.519671 l -0.82059,-2.48048 c -0.14,-0.43333 0.0177,-0.6498 0.471,-0.6498 z m -50.95016,0.12942 h 46.26011 c 0.29999,0 0.48974,0.14699 0.56974,0.44032 l 0.66048,2.42975 c 3.63333,8.760011 4.53663,17.707421 2.70996,26.840741 -0.11146,0.55683 -0.59322,0.96248 -1.16084,0.97938 l -6.49002,0.15077 c -0.2712,0.007 -0.5236,-0.13594 -0.65915,-0.37093 -1.90667,-3.40667 -3.81347,-6.786 -5.72013,-10.13933 -2.64,-4.65 -11.95019,-3.76991 -15.93019,-3.55991 -6.38,0.32 -9.7304,8.58972 -12.55041,13.44973 -0.19221,0.32853 -0.5463,0.53002 -0.93,0.52971 h -6.75021 c -0.40001,0 -0.59676,-0.20043 -0.58976,-0.60043 l 0.0107,-23.899951 0.1401,-5.82955 c 0.007,-0.28 0.14965,-0.4203 0.42965,-0.4203 z m 63.04958,3.68 0.06,0.0106 c 0.6641,0.1354 1.02625,1.12844 0.80992,2.22028 l -0.0494,0.27887 c -0.21749,1.09428 -0.93369,1.8746 -1.59982,1.74125 l -0.06,-0.0107 c -0.073,-0.0148 -0.11878,-0.088 -0.10008,-0.16012 l 0.78991,-3.9802 c 0.015,-0.0682 0.0806,-0.11247 0.14944,-0.10007 z m -196.08176,9.090571 c 0.35897,0.001 0.64246,2.24098 0.63246,5.00228 -0.01,2.76156 -0.30949,4.99795 -0.66849,4.99695 -0.35897,-0.001 -0.64246,-2.24099 -0.63246,-5.00229 0.01,-2.76156 0.30949,-4.99794 0.66849,-4.99694 z m 157.96887,7.10513 c 2.02676,-0.0154 3.86781,0.10788 4.81281,0.16412 3.93,0.23 6.23033,6.85048 7.82033,9.88048 1.41999,2.72 0.92999,5.60957 -0.93001,7.70957 -6.18667,7 -13.25667,7.97679 -21.21,2.93012 -3.04,-1.92667 -4.70628,-4.72607 -4.99962,-8.39941 -0.0266,-0.32666 0.0495,-0.62999 0.2295,-0.90999 1.98,-3.09999 3.94025,-6.15997 5.88025,-9.17997 1.125,-1.75624 5.01881,-2.16913 8.39674,-2.19492 z m -117.41689,3.86413 c 0.4725,-0.0191 0.73124,0.54326 0.40963,0.88997 -9.99,10.46001 9.081,20.3607 14.28099,9.2507 1.62,-3.46001 0.38989,-6.75949 -2.00011,-9.42949 -0.32667,-0.36 -0.2505,-0.53367 0.2295,-0.52037 l 5.31985,0.10007 c 0.30395,0.007 0.59045,0.14941 0.78056,0.38961 4.42,5.68 0.97014,13.33014 -4.40985,16.78013 -11.21001,7.2 -27.22037,-2.94007 -20.80038,-16.70007 0.12667,-0.26667 0.33646,-0.407 0.62979,-0.4203 z m 6.44467,1.99077 c 3.03162,-0.0529 5.52769,2.08867 5.57469,4.78346 0.0471,2.69475 -2.37231,4.9227 -5.4039,4.9756 -3.03164,0.0529 -5.5277,-2.08867 -5.5747,-4.78346 -0.0471,-2.69475 2.3723,-4.92269 5.40391,-4.9756 z m 145.23566,0.7699 c 1.37333,0.0133 2.27663,0.70015 2.70996,2.06015 0.32107,1.00436 -0.38741,2.04242 -1.43971,2.10952 l -3.92017,0.25085 c -0.56666,0.0333 -0.69093,-0.18446 -0.37093,-0.65114 l 2.25096,-3.35975 c 0.18667,-0.27334 0.44322,-0.40963 0.76989,-0.40963 z M 183.2654,118.959 h 18.25987 c 0.43333,0 0.64309,0.21647 0.62979,0.6498 -0.08,3.51 -1.89932,5.36063 -5.50932,5.49063 -4.45333,0.16667 -8.907,0.18672 -13.36032,0.0601 -0.38668,-0.0133 -0.56974,-0.21376 -0.54973,-0.60043 0,-0.08 0.02,-0.16017 0.0601,-0.24018 0.0267,-0.0533 0.04,-0.10945 0.04,-0.16945 l -0.04,-4.71007 c -0.007,-0.32 0.14967,-0.48035 0.46967,-0.48035 z m -4.74343,2.77133 c 0.68483,-10e-4 1.24123,0.5534 1.24223,1.23823 l 0.003,0.97937 c 0.001,0.6848 -0.55344,1.24124 -1.23823,1.24223 l -10.71975,0.0187 c -0.68483,0.001 -1.24123,-0.5534 -1.24223,-1.23822 l -0.003,-0.97938 c -10e-4,-0.68479 0.55344,-1.24123 1.23823,-1.24223 z"
           sodipodi:nodetypes="ccccccccccccccccsscccccccccccccccscccssscscccccccccccscccccscccccsssccscccccccccccssssccccccccscccccccccccsccsccccccccccccsccscccccccscccscccccccccsccccccscccccccscccccccccccsssssccccccccsccccsccscccccccccc" />
        <path
           fill="#f5f5f5"
           d="m 348.17529,52.419459 -156.97,-0.08 a 0.4,0.4 0 0 1 -0.36,-0.56 c 1.63,-3.54 4.47,-4.06 8.36,-4.06 q 71.52,-0.03 143.04,-0.04 4.57,0 6.59,3.61 a 0.76,0.76 0 0 1 -0.66,1.13 z"
           id="path1354"
           style="fill:#666666;stroke:#666666" />
        <path
           fill="#f5f5f5"
           d="m 354.98529,82.499459 c 2.09,-0.06 16.38,-1.48 15.06,2.72 a 1.43,1.43 0 0 1 -1.36,0.99 l -185.16,-0.01 a 2.48,2.47 6.9 0 1 -2.41,-3.06 q 2.4,-9.81 5.09,-20.69 c 1.3,-5.3 3.58,-6.23 9.01,-6.23 q 76.89,-0.03 153.78,0 4,0 6.59,3.32 0.51,0.67 -0.33,0.67 h -6.13 a 0.65,0.65 0 0 0 -0.6,0.91 l 7.32,16.46 a 0.78,0.79 60.6 0 1 -0.27,0.96 q -1.73,1.21 -1.3,3.39 0.12,0.59 0.71,0.57 z m -51.7972,-15.6248 a 7.04,7.04 0 0 0 -7.0522,-7.0277 l -37.3,0.0651 a 7.04,7.04 0 0 0 -7.0277,7.0522 l 0.0143,8.16 a 7.04,7.04 0 0 0 7.0522,7.0277 l 37.3,-0.0651 a 7.04,7.04 0 0 0 7.0277,-7.0522 z m -98.6428,13.8248 q 0.4,-0.29 0.94,-0.29 c 0.52,1.37 1.07,2.04 2.65,2.05 q 14.38,0.02 28.74,-0.02 c 8.64,-0.03 8.78,-5.53 8.62,-12.99 -0.17,-7.6 -3.8,-9.18 -10.94,-9.22 q -12.41,-0.06 -24.82,0 c -9.62,0.05 -14.37,3.39 -15.87,13.11 q -0.6,3.88 0.78,6.14 c 1.51,2.46 7.92,5.15 9.9,1.22 z m 128.97,-0.15 6.43,0.42 c 0.16,2.26 3.94,1.5 5.52,1.5 4.88,-0.01 6.94,-2.8 5.13,-7.4 q -2.49,-6.34 -5.03,-12.29 a 4.22,4.21 78.5 0 0 -3.88,-2.57 h -27.79 a 4.4,4.41 0 0 0 -4.4,4.41 v 13.59 a 4.25,4.25 0 0 0 4.25,4.25 h 18.54 a 0.92,0.9 14.7 0 0 0.79,-0.45 q 0.35,-0.59 0.44,-1.46 z"
           id="path1356"
           style="fill:#666666;fill-opacity:1;stroke:#666666" />
        <path
           fill="#1f1d1d"
           d="m 303.20239,75.034659 a 7.04,7.04 0 0 1 -7.0277,7.0522 l -37.3,0.0651 a 7.04,7.04 0 0 1 -7.0522,-7.0277 l -0.0143,-8.16 a 7.04,7.04 0 0 1 7.0277,-7.0522 l 37.3,-0.0651 a 7.04,7.04 0 0 1 7.0522,7.0277 z m -47.9871,-7.0952 c -0.56,4.3 -1.58,10.98 4.65,11 q 18.53,0.04 36.38,0.01 a 3.75,3.75 0 0 0 3.75,-3.75 l 0.02,-7.3 c 0.13,-3.73 -2.16,-4.92 -5.63,-4.92 q -17.31,-0.04 -34.64,-0.01 -4.89,0.01 -4.53,4.97 z"
           id="path1358"
           style="fill:#666666;stroke:#666666" />
        <path
           fill="#1f1d1d"
           d="m 213.06518,79.209459 c 8.36,0.29333 15.11344,0.42667 23.92011,0.4 6.65,-0.03 5.19,-7.53 4.9,-11.75 -0.12,-4.14 -4.4,-4.63 -7.21,-4.65 -3.68667,-0.02 -11.88667,0.0633 -24.6,0.25 -8.49,0.13 -10.76,1.93 -12.82,9.77 -1.27586,4.84721 0.81102,5.81301 3.07502,6.10586 1.18146,0.15282 2.77713,0.0614 3.51085,0.0444 0.57898,-0.0134 1.52372,0.19948 1.56765,1.60858 0.0444,1.42409 -0.96148,1.45576 -1.79186,1.46999 -7.15555,0.12266 -8.31333,-0.67544 -9.27357,-2.84943 -0.71327,-1.61484 -0.87809,-3.68272 -0.47809,-6.26939 1.5,-9.72 6.25,-13.06 15.87,-13.11 8.27333,-0.04 16.54667,-0.04 24.82,0 7.14,0.04 10.77,1.62 10.94,9.22 0.16,7.46 0.02,12.96 -8.62,12.99 -9.57333,0.0267 -17.32344,0.0333 -26.91011,0.02 -0.71738,0.0331 -0.75115,-1.0062 -0.72084,-1.54877 0.0422,-0.75461 -0.0977,-1.52762 0.94601,-1.60744 0.57426,-0.0439 1.74513,-0.0886 2.87483,-0.0938 z"
           id="path1360"
           style="fill:#666666;stroke:#666666"
           sodipodi:nodetypes="ccccccsssssccccccssc" />
        <path
           fill="#1f1d1d"
           d="m 339.94529,80.969459 q 0.23,-0.04 -0.08,-0.53 2.01,-1.13 4.97,-1.22 2.27,0.7 3.23,-0.55 0.31,-0.39 0.13,-0.87 -3.86,-10.13 -5.5,-13.52 -0.68,-1.39 -2.4,-0.62 l -26.42,-0.16 q -0.54,0 -0.78,0.48 -0.59,1.18 -0.44,3.15 l -0.09,10.51 a 1.72,1.72 0 0 0 1.69,1.73 q 9,0.16 17.43,0.08 c 0.87,-0.01 1.47,0.37 1.83,1.1 q -0.09,0.87 -0.44,1.46 a 0.92,0.9 14.7 0 1 -0.79,0.45 h -18.54 a 4.25,4.25 0 0 1 -4.25,-4.25 v -13.59 a 4.4,4.41 0 0 1 4.4,-4.41 h 27.79 a 4.22,4.21 78.5 0 1 3.88,2.57 q 2.54,5.95 5.03,12.29 c 1.81,4.6 -0.25,7.39 -5.13,7.4 -1.58,0 -5.36,0.76 -5.52,-1.5 z"
           id="path1362"
           style="fill:#666666;stroke:#666666" />
        <path
           fill="#555656"
           d="m 300.01529,67.899459 -44.8,0.04 q -0.36,-4.96 4.53,-4.97 17.33,-0.03 34.64,0.01 c 3.47,0 5.76,1.19 5.63,4.92 z"
           id="path1364"
           style="fill:#666666;stroke:#666666" />
        <path
           fill="#555656"
           d="m 340.29529,63.659459 -2.47,1.92 a 0.7,0.7 0 0 0 -0.18,0.9 l 7.19,12.74 q -2.96,0.09 -4.97,1.22 l -6.6,-12.74 q -0.25,-0.48 -0.79,-0.48 l -19.82,-0.09 q -0.15,-1.97 0.44,-3.15 0.24,-0.48 0.78,-0.48 z"
           id="path1368"
           style="fill:#666666;stroke:#666666" />
        <path
           fill="#a0a1a4"
           d="m 344.83529,79.219459 -7.19,-12.74 a 0.7,0.7 0 0 1 0.18,-0.9 l 2.47,-1.92 q 1.72,-0.77 2.4,0.62 1.64,3.39 5.5,13.52 0.18,0.48 -0.13,0.87 -0.96,1.25 -3.23,0.55 z"
           id="path1370"
           style="fill:#666666;stroke:#666666" />
        <path
           fill="#a0a1a4"
           d="m 358.94529,77.279459 -5.18,-13.27 q -0.22,-0.55 0.37,-0.55 h 3.24 q 0.51,0 0.77,0.44 l 8.57,14.74 q 0.33,0.57 -0.33,0.57 l -7.08,0.05 q -0.56,0 -0.59,-0.56 -0.01,-0.27 0.16,-0.57 0.24,-0.41 0.07,-0.85 z"
           id="path1372"
           style="fill:#666666;stroke:#666666" />
        <path
           fill="#a0a1a4"
           d="m 312.65529,67.129459 19.82,0.09 q 0.54,0 0.79,0.48 l 6.6,12.74 q 0.31,0.49 0.08,0.53 l -6.43,-0.42 c -0.36,-0.73 -0.96,-1.11 -1.83,-1.1 q -8.43,0.08 -17.43,-0.08 a 1.72,1.72 0 0 1 -1.69,-1.73 z"
           id="path1374"
           style="fill:#666666;stroke:#666666" />
        <path
           fill="#a0a1a4"
           d="m 241.88529,67.859459 c 0.29,4.22 1.75,11.72 -4.9,11.75 q -13.21,0.04 -25.75,-0.4 -3.79,-4.93 -3.48,-9.62 a 1.78,1.79 1.7 0 1 1.78,-1.68 z"
           id="path1376"
           style="fill:#666666;stroke:#666666" />
        <path
           fill="#a0a1a4"
           d="m 300.01529,67.899459 -0.02,7.3 a 3.75,3.75 0 0 1 -3.75,3.75 q -17.85,0.03 -36.38,-0.01 c -6.23,-0.02 -5.21,-6.7 -4.65,-11 z"
           id="path1378"
           style="fill:#666666;stroke:#666666" />
        <path
           fill="#e38b22"
           d="m 247.72529,92.349459 -66.97,0.16 v -2.9 q 0.01,-0.38 0.39,-0.38 l 65.99,0.32 q 0.53,0 0.54,0.53 z"
           id="path1380"
           style="fill:#666666;fill-opacity:1;stroke:#666666" />
        <path
           fill="#e38b22"
           d="m 305.71529,91.949459 q -0.7,-0.86 -1.81,0.29 a 1.18,1.15 21.7 0 1 -0.87,0.36 l -52.04,-0.49 0.02,-2.18 q 0,-0.5 0.5,-0.5 l 53.72,0.02 q 0.5,0 0.5,0.5 z"
           id="path1382"
           style="fill:#666666;fill-opacity:1;stroke:#666666" />
        <path
           fill="#e38b22"
           d="m 369.63529,92.149459 q -1.14,-0.34 -2.34,0.35 -0.43,0.26 -0.94,0.23 l -5.3,-0.27 -0.82,-2.48 q -0.21,-0.65 0.47,-0.65 l 8.87,0.01 q 0.63,0 0.5,0.62 z"
           id="path1384"
           style="fill:#666666;fill-opacity:1;stroke:#666666" />
        <path
           fill="#e38b22"
           d="m 357.24529,92.329459 -46.16,0.19 q -0.51,0 -0.89,0.32 -1.24,1.05 -1.01,2.87 l 0.14,-5.83 q 0.01,-0.42 0.43,-0.42 h 46.26 q 0.45,0 0.57,0.44 z"
           id="path1386"
           style="fill:#666666;fill-opacity:1;stroke:#666666" />
        <path
           fill="#efbe30"
           d="m 305.71529,91.949459 0.01,27.720001 c 0,0.34667 -0.17,0.52 -0.51,0.52 -13.18,0.0333 -26.33333,0.0633 -39.46,0.09 -1.30667,0 -2.37296,0.004 -3.50078,-0.009 l -3.31648,-0.026 c -2.18469,0.0124 -4.366,0.0243 -7.35274,-0.005 -0.41333,0.0333 -0.62,-0.15667 -0.62,-0.57 l 0.03,-27.560001 52.04,0.49 c 0.33086,0.006 0.64669,-0.12431 0.87,-0.36 0.74,-0.76667 1.34333,-0.86333 1.81,-0.29 z m -6.039,5.8508 c 0.011,-1.26467 -1.00523,-2.29885 -2.2699,-2.3099 l -7.0598,-0.0616 c -1.26467,-0.011 -2.29885,1.00523 -2.3099,2.2699 l -0.002,0.28 c -0.011,1.26467 1.00523,2.298851 2.2699,2.309901 l 7.0598,0.0616 c 1.26467,0.011 2.29885,-1.005231 2.3099,-2.269901 z"
           id="path1388"
           sodipodi:nodetypes="ccccccccccccccscccscc"
           style="fill:#666666;fill-opacity:1;stroke:#666666" />
        <path
           fill="#efbe30"
           d="m 369.63529,92.149459 q -2.14,10.500001 -4.18,20.800001 -0.42,2.09 -1.03,3.2 -0.65,1.18 -0.51,-0.17 1.24,-11.7 -2.86,-23.520001 l 5.3,0.27 q 0.51,0.03 0.94,-0.23 1.2,-0.69 2.34,-0.35 z"
           id="path1390"
           style="fill:#666666;fill-opacity:1;stroke:#666666" />
        <path
           fill="#efbe30"
           d="m 247.72529,92.349459 -0.08,27.360001 a 0.62,0.62 0 0 1 -1.18,0.25 c -3.23,-7.15 -3.52,-9.76 -12.35,-9.94 q -10.71,-0.22 -21.41,0.07 c -4.21,0.12 -6.57,1.53 -8.35,5.12 q -0.25,0.49 -0.8,0.49 l -22.26,0.03 q -0.54,0 -0.54,-0.55 V 92.509459 Z"
           id="path1392"
           style="fill:#666666;fill-opacity:1;stroke:#666666" />
        <path
           fill="#efbe30"
           d="m 357.24529,92.329459 q 5.45,13.140001 2.71,26.840001 a 1.22,1.22 0 0 1 -1.16,0.98 l -6.49,0.15 a 0.74,0.74 0 0 1 -0.66,-0.37 q -2.86,-5.11 -5.72,-10.14 c -2.64,-4.65 -11.95,-3.77 -15.93,-3.56 -6.38,0.32 -9.73,8.59 -12.55,13.45 a 1.08,1.07 15 0 1 -0.93,0.53 h -6.75 q -0.6,0 -0.59,-0.6 l 0.01,-23.900001 q -0.23,-1.82 1.01,-2.87 0.38,-0.32 0.89,-0.32 z m -34.1302,5.3897 a 2.36,2.36 0 0 0 -2.3642,-2.3558 l -7.0399,0.0122 a 2.36,2.36 0 0 0 -2.3559,2.3642 l 4e-4,0.26 a 2.36,2.36 0 0 0 2.3642,2.355801 l 7.0399,-0.0122 a 2.36,2.36 0 0 0 2.3559,-2.364201 z"
           id="path1394"
           style="fill:#666666;fill-opacity:1;stroke:#666666" />
        <path
           fill="#f5f5f5"
           d="m 372.65529,93.239459 a 0.13,0.13 0 0 1 0.15,-0.1 l 0.06,0.01 a 1.23,2.02 11.2 0 1 0.81,2.22 l -0.05,0.28 a 1.23,2.02 11.2 0 1 -1.6,1.74 l -0.06,-0.01 a 0.13,0.13 0 0 1 -0.1,-0.16 z"
           id="path1396"
           style="fill:#666666;fill-opacity:1;stroke:#666666" />
        <path
           fill="#1f1d1d"
           d="m 323.11549,97.979159 a 2.36,2.36 0 0 1 -2.3559,2.364201 l -7.0399,0.0122 a 2.36,2.36 0 0 1 -2.3642,-2.355801 l -4e-4,-0.26 a 2.36,2.36 0 0 1 2.3559,-2.3642 l 7.0399,-0.0122 a 2.36,2.36 0 0 1 2.3642,2.3558 z m -1.69,-0.1704 a 0.82,0.82 0 0 0 -0.8143,-0.8257 l -6.7598,-0.0472 a 0.82,0.82 0 0 0 -0.8257,0.8143 l -6e-4,0.08 a 0.82,0.82 0 0 0 0.8143,0.8257 l 6.7598,0.0472 a 0.82,0.82 0 0 0 0.8257,-0.8143 z"
           id="path1398"
           style="fill:#666666;stroke:#666666" />
        <path
           fill="#1f1d1d"
           d="m 299.67389,98.080259 a 2.29,2.29 0 0 1 -2.3099,2.269901 l -7.0598,-0.0616 a 2.29,2.29 0 0 1 -2.2699,-2.309901 l 0.002,-0.28 a 2.29,2.29 0 0 1 2.3099,-2.2699 l 7.0598,0.0616 a 2.29,2.29 0 0 1 2.2699,2.3099 z m -1.6486,-0.3108 a 0.82,0.82 0 0 0 -0.82,-0.82 h -6.88 a 0.82,0.82 0 0 0 -0.82,0.82 v 0.12 a 0.82,0.82 0 0 0 0.82,0.82 h 6.88 a 0.82,0.82 0 0 0 0.82,-0.82 z"
           id="path1400"
           style="fill:#666666;stroke:#666666" />
        <rect
           fill="#f5f5f5"
           x="289.50531"
           y="96.94944"
           width="8.5200005"
           height="1.76"
           rx="0.81999999"
           id="rect1402"
           style="fill:#666666;fill-opacity:1;stroke:#666666" />
        <rect
           fill="#f5f5f5"
           x="313.70044"
           y="94.742447"
           transform="rotate(0.4)"
           width="8.3999996"
           height="1.72"
           rx="0.81999999"
           id="rect1404"
           style="fill:#666666;fill-opacity:1;stroke:#666666" />
        <ellipse
           fill="#e38b22"
           cx="106.61198"
           cy="-177.07852"
           transform="rotate(90.2)"
           rx="5"
           ry="0.64999998"
           id="ellipse1406"
           style="fill:#666666;stroke:#666666" />
        <path
           fill="#555656"
           d="m 325.18529,130.01946 q -4.56,-2.89 -5,-8.4 -0.04,-0.49 0.23,-0.91 2.97,-4.65 5.88,-9.18 c 1.8,-2.81 10.69,-2.18 13.21,-2.03 3.93,0.23 6.23,6.85 7.82,9.88 1.42,2.72 0.93,5.61 -0.93,7.71 q -9.28,10.5 -21.21,2.93 z m 17.9336,-9.4934 a 8.79,8.17 3.5 0 0 -8.2748,-8.6914 8.79,8.17 3.5 0 0 -9.2724,7.6182 8.79,8.17 3.5 0 0 8.2748,8.6914 8.79,8.17 3.5 0 0 9.2724,-7.6182 z"
           id="path1408"
           style="fill:#666666;stroke:#666666" />
        <path
           fill="#1f1d1d"
           d="m 343.11889,120.52606 a 8.79,8.17 3.5 0 1 -9.2724,7.6182 8.79,8.17 3.5 0 1 -8.2748,-8.6914 8.79,8.17 3.5 0 1 9.2724,-7.6182 8.79,8.17 3.5 0 1 8.2748,8.6914 z m -3.3537,-0.4653 a 4.87,5.49 89.7 0 0 -5.5154,-4.8412 4.87,5.49 89.7 0 0 -5.4644,4.8986 4.87,5.49 89.7 0 0 5.5154,4.8412 4.87,5.49 89.7 0 0 5.4644,-4.8986 z"
           id="path1410"
           style="fill:#666666;stroke:#666666" />
        <path
           fill="#555656"
           d="m 231.88529,130.65946 c -11.21,7.2 -27.22,-2.94 -20.8,-16.7 q 0.19,-0.4 0.63,-0.42 l 5.56,-0.34 a 0.53,0.53 0 0 1 0.41,0.89 c -9.99,10.46 9.08,20.36 14.28,9.25 1.62,-3.46 0.39,-6.76 -2,-9.43 q -0.49,-0.54 0.23,-0.52 l 5.32,0.1 a 1.03,1.02 71.3 0 1 0.78,0.39 c 4.42,5.68 0.97,13.33 -4.41,16.78 z"
           id="path1412"
           style="fill:#666666;stroke:#666666" />
        <ellipse
           fill="#a0a1a4"
           cx="221.6757"
           cy="123.95711"
           transform="rotate(-1)"
           rx="5.4899998"
           ry="4.8800001"
           id="ellipse1414"
           style="fill:#666666;fill-opacity:1;stroke:#666666" />
        <ellipse
           fill="#a0a1a4"
           cx="333.64191"
           cy="121.83807"
           transform="rotate(-0.3)"
           rx="5.4899998"
           ry="4.8699999"
           id="ellipse1416"
           style="fill:#666666;fill-opacity:1;stroke:#666666" />
        <path
           fill="#f5f5f5"
           d="m 368.95529,115.95946 q 2.06,0.02 2.71,2.06 a 1.62,1.62 0 0 1 -1.44,2.11 l -3.92,0.25 q -0.85,0.05 -0.37,-0.65 l 2.25,-3.36 q 0.28,-0.41 0.77,-0.41 z"
           id="path1418"
           style="fill:#666666;fill-opacity:1;stroke:#666666" />
        <path
           fill="#f5f5f5"
           d="m 182.83529,124.14946 -0.04,-4.71 q -0.01,-0.48 0.47,-0.48 h 18.26 q 0.65,0 0.63,0.65 c -0.08,3.51 -1.9,5.36 -5.51,5.49 q -6.68,0.25 -13.36,0.06 -0.58,-0.02 -0.55,-0.6 0,-0.12 0.06,-0.24 0.04,-0.08 0.04,-0.17 z"
           id="path1420"
           style="fill:#666666;stroke:#666666" />
        <rect
           fill="#f5f5f5"
           x="166.34943"
           y="122.0415"
           transform="rotate(-0.1)"
           width="13.2"
           height="3.46"
           rx="1.24"
           id="rect1424"
           style="fill:#666666;stroke:#666666" />
      </g>
      <g
         id="g2534"
         transform="matrix(0.64088145,0,0,0.64088145,-38.482423,173.48582)">
        <g
           id="g2568"
           style="fill:#b3b3b3;stroke:#b3b3b3;filter:url(#filter2570)"
           transform="matrix(1.2629143,0,0,1.2629143,-62.505401,-8.4366295)">
          <rect
             style="opacity:1;fill:#b3b3b3;fill-opacity:1;stroke:#b3b3b3;stroke-width:2.52417;stroke-linejoin:round;stroke-miterlimit:4;stroke-dasharray:none;stroke-opacity:1"
             id="rect2554"
             width="9.6704998"
             height="14.736"
             x="302.82553"
             y="33.431259"
             ry="4.8352499" />
          <rect
             style="opacity:1;fill:#b3b3b3;fill-opacity:1;stroke:#b3b3b3;stroke-width:2.52417;stroke-linejoin:round;stroke-miterlimit:4;stroke-dasharray:none;stroke-opacity:1"
             id="rect2556"
             width="9.6704998"
             height="14.736"
             x="231.68022"
             y="33.724953"
             ry="4.8352499" />
          <rect
             style="opacity:1;fill:#b3b3b3;fill-opacity:1;stroke:#b3b3b3;stroke-width:2.892;stroke-linejoin:round;stroke-miterlimit:4;stroke-dasharray:none;stroke-opacity:1"
             id="rect2558"
             width="129.83064"
             height="70.872055"
             x="208.05116"
             y="-32.96384"
             ry="8.6740074" />
        </g>
        <g
           id="g2563"
           transform="matrix(1.2423738,0,0,1.2423738,-62.113976,-10.640523)">
          <rect
             style="opacity:1;fill:#f5f5f5;fill-opacity:1;stroke:#000000;stroke-width:2.52417;stroke-linejoin:round;stroke-miterlimit:4;stroke-dasharray:none;stroke-opacity:1"
             id="rect2544"
             width="9.6704998"
             height="14.736"
             x="302.82553"
             y="33.431259"
             ry="4.8352499" />
          <rect
             style="opacity:1;fill:#f5f5f5;fill-opacity:1;stroke:#000000;stroke-width:2.52417;stroke-linejoin:round;stroke-miterlimit:4;stroke-dasharray:none;stroke-opacity:1"
             id="rect2550"
             width="9.6704998"
             height="14.736"
             x="231.68022"
             y="33.724953"
             ry="4.8352499" />
          <rect
             style="opacity:1;fill:#f5f5f5;fill-opacity:1;stroke:#000000;stroke-width:2.892;stroke-linejoin:round;stroke-miterlimit:4;stroke-dasharray:none;stroke-opacity:1"
             id="rect2540"
             width="129.83064"
             height="71.492249"
             x="208.05116"
             y="-33.584064"
             ry="8.6740074" />
        </g>
        <path
           fill="#555656"
           d="m 239.09971,72.483391 -40.19079,0.06212 c -1.16992,-0.0012 -2.13915,0.912933 -2.21143,2.087188 -0.25676,3.884493 2.63119,9.047239 5.77026,13.130497 -3.00655,0.0332 -5.6021,0.26215 -8.59045,0.31199 -0.44725,0 -0.83652,0.12013 -1.16783,0.36028 -0.33544,-3.64015 -12.02618,2.00023 -9.0569,-9.280527 2.55929,-9.74021 5.37948,-11.976483 15.92723,-12.137992 15.79471,-0.231914 25.98217,-0.335441 30.5624,-0.310593 3.49107,0.02485 8.80843,0.633611 8.95751,5.777037 z"
           id="path2462"
           sodipodi:nodetypes="cccccccccc"
           style="stroke-width:1.24237" />
        <path
           id="path2464"
           style="stroke-width:1.24237"
           d="m 235.1575,43.309497 c 0,0 -11.26606,0.0012 -11.74645,0.0012 -12.46514,-0.03317 -24.99043,0.08784 -37.3479,0.137593 -7.87667,0.02485 -13.34402,2.273444 -15.0088,10.174942 0.11181,3.826511 -3.36569,4.32392 -4.13595,7.504397 -1.91325,7.843516 -3.88047,15.679192 -5.9014,23.506137 -2.22385,8.59723 -2.12497,16.138094 -1.85166,24.722904 0.0165,0.43896 -0.17434,0.7494 -0.5719,0.93162 -5.61552,2.62141 -5.86287,8.25027 -5.31623,13.85338 0.44726,4.62163 1.96223,6.8702 5.88813,8.99466 0.94725,0.5026 0.65104,1.92959 -0.4227,2.03731 -5.40433,0.48452 -16.5235,-2.23615 -17.08257,5.9014 -0.2609,3.90105 2.10061,6.26114 5.9644,6.28599 11.49609,0.0745 22.99891,0.10821 34.51158,0.0995 5.4416,0 8.98379,-1.67778 11.1331,-6.52303 0.33716,-0.72861 1.39276,-0.66454 1.63946,0.0995 1.6068,5.23452 4.54344,9.56456 8.93333,12.82228 7.33353,5.44218 20.5824,3.58473 25.80026,-0.2966 4.01409,-2.9859 7.0597,-6.79056 8.5754,-12.06651 0.1408,-0.48039 0.62029,-0.31616 1.11724,-0.25814 6.69175,0.15599 13.01322,0.17784 19.44483,0.17194 1.97199,0.16938 2.30744,-0.72044 2.29543,-2.59476 0.0153,-2.30773 -6.34612,-1.57908 -9.92415,-1.25606 -0.51351,0.0414 -0.77083,-0.19599 -0.77083,-0.70951 l 0.0381,-34.23972 0.0248,-2.707024 c 0,-0.41412 0.20587,-0.62164 0.61999,-0.62164 l 66.74053,0.0249 c 0.41412,0 0.62163,0.20751 0.62163,0.62163 l -0.0248,2.483224 0.0132,34.43866 c 0,0.43069 -0.21248,0.6465 -0.63489,0.6465 -16.37448,0.0414 -32.71484,0.0795 -49.02307,0.11269 -3.2845,0.0535 -3.91614,-0.15687 -3.93465,1.22079 -0.0302,2.24714 -0.0532,2.72951 2.02167,2.72951 21.62559,-0.009 43.26664,-0.005 64.92534,0.0112 0.46383,0 0.76598,0.22411 0.90678,0.67137 1.51569,4.93636 4.34622,8.93171 8.62334,11.78953 3.45901,2.31121 7.56987,3.11925 11.59137,3.29662 5.04391,0.22248 7.9952,-0.34843 10.21874,-1.33556 1.72703,-0.76671 2.62289,-1.4889 3.21096,-1.88646 4.39799,-2.94029 7.34633,-6.92785 8.84547,-11.9636 0.11591,-0.38927 0.3716,-0.57517 0.76916,-0.55864 6.89104,0.21534 13.7871,0.21534 20.68641,0 10.89562,-0.34787 9.45411,-13.5041 0.65811,-13.04442 -0.33684,0.0156 -0.59802,-0.29593 -0.53379,-0.6349 l 2.60921,-12.6217 c 0.11591,-0.53008 0.41811,-0.90692 0.90677,-1.13055 7.09396,-3.18048 8.52224,-9.66513 2.81974,-15.305524 -0.30134,-0.29405 -0.47185,-0.69791 -0.47243,-1.11895 v -4.96977 c -3e-5,-0.4069 -0.1066,-0.80555 -0.31,-1.1554 L 384.22066,60.619231 c -1.5571,-2.584138 -3.73516,-4.410253 -6.53464,-5.478682 -0.36266,-0.138438 -0.62716,-0.459654 -0.69624,-0.845423 -1.68962,-9.541444 -7.92619,-10.95816 -16.9831,-10.896053 -10.27856,0.05802 -20.58115,0.04969 -30.90941,-0.02485 -15.68961,0.1263 -68.83842,-0.10498 -93.94002,-0.06473 z m 128.62732,4.102791 c 3.7851,0 6.5143,1.495743 8.18736,4.48574 0.34977,0.627498 -0.10212,1.398676 -0.82056,1.402403 l -195.01478,-0.09951 c -0.35469,-0.0062 -0.58949,-0.369506 -0.44757,-0.694574 2.02507,-4.398003 5.55265,-5.044373 10.38548,-5.044373 59.23637,-0.02485 118.47368,-0.041 177.71007,-0.04969 z M 181.11824,58.021551 c 63.68407,-0.02485 127.36878,-0.02485 191.05287,0 3.313,0 6.04054,1.376227 8.18571,4.126011 0.4224,0.554931 0.28628,0.832166 -0.40945,0.832166 h -7.61547 c -0.58434,-0.0037 -0.97971,0.594986 -0.74596,1.130548 l 9.09413,20.449349 c 0.18855,0.423001 0.0486,0.921901 -0.33486,1.191881 -1.43286,1.00219 -1.97075,2.40663 -1.6146,4.21221 0.0994,0.48866 0.39324,0.72435 0.8819,0.70783 2.59656,-0.0745 20.35036,-1.83792 18.71042,3.38005 -0.23701,0.73293 -0.92055,1.22968 -1.69084,1.23001 l -230.03694,-0.0133 c -1.99891,-8.6e-4 -3.46927,-1.86764 -2.99381,-3.80111 1.98781,-8.12512 4.09448,-16.694555 6.32246,-25.705902 1.61509,-6.584581 4.44833,-7.73979 11.19444,-7.73979 z m 197.43831,8.994662 h 4.02489 c 0.42241,0 0.74116,0.182617 0.9565,0.547042 l 10.64738,18.312581 c 0.27332,0.4721 0.13719,0.70783 -0.40945,0.70783 l -8.7974,0.063 c -0.46381,0 -0.70785,-0.23242 -0.7327,-0.69623 -0.009,-0.22363 0.0581,-0.45937 0.19893,-0.70783 0.19878,-0.33959 0.22864,-0.691531 0.0878,-1.055969 l -6.43682,-16.485766 c -0.18223,-0.455541 -0.0278,-0.684635 0.46083,-0.684635 z m -214.91874,32.016753 81.98472,0.39785 c 0.43896,0 0.66101,0.21914 0.6697,0.658114 l 0.063,2.81974 -0.0995,33.99107 c -0.0205,0.8107 -1.11791,1.04439 -1.46541,0.31165 -4.01288,-8.88297 -4.37349,-12.12621 -15.34365,-12.34984 -8.87055,-0.18222 -17.73713,-0.15232 -26.59939,0.0878 -5.2304,0.14907 -8.16245,1.90046 -10.37388,6.36058 -0.20706,0.40585 -0.53907,0.60838 -0.99462,0.60838 l -27.65535,0.0381 c -0.44725,0 -0.66971,-0.2291 -0.66971,-0.68462 v -28.16428 -3.602184 c 0.009,-0.31473 0.16932,-0.47244 0.48405,-0.47244 z m 223.08124,0.12434 11.01872,0.0112 c 0.52179,0 0.72935,0.25732 0.62164,0.77082 l -0.54704,2.720294 c -1.77246,8.6966 -3.50228,17.31086 -5.19191,25.84183 -0.34786,1.73104 -0.77451,3.05581 -1.27974,3.97515 -0.53832,0.97734 -0.75082,0.90762 -0.63491,-0.21052 1.02704,-9.69051 -0.15662,-19.43031 -3.55244,-29.22022 l -1.01948,-3.081684 c -0.17393,-0.53836 0.022,-0.8073 0.58516,-0.8073 z m -63.29914,0.16079 h 57.47234 c 0.3727,0 0.60844,0.18261 0.70783,0.54704 l 0.82057,3.018664 c 4.51395,10.88321 5.63619,21.99923 3.36678,33.34623 -0.13847,0.69179 -0.737,1.19576 -1.4422,1.21676 l -8.06303,0.18731 c -0.33693,0.009 -0.6505,-0.16889 -0.81891,-0.46083 -2.36879,-4.23236 -4.73775,-8.43075 -7.10654,-12.59684 -3.27986,-5.77704 -14.8466,-4.68364 -19.79125,-4.42274 -7.92634,0.39756 -12.08879,10.67164 -15.5923,16.70959 -0.2388,0.40816 -0.67871,0.65848 -1.15541,0.6581 h -8.38628 c -0.49696,0 -0.7414,-0.24901 -0.7327,-0.74596 l 0.0133,-29.69267 0.17406,-7.242484 c 0.009,-0.34787 0.18592,-0.52217 0.53378,-0.52217 z m 78.33114,4.571934 0.0745,0.0132 c 0.82506,0.16822 1.27499,1.40195 1.00623,2.75842 l -0.0614,0.34646 c -0.2702,1.35951 -1.15999,2.32895 -1.98757,2.16328 l -0.0745,-0.0133 c -0.0907,-0.0184 -0.14757,-0.10933 -0.12434,-0.19893 l 0.98136,-4.94489 c 0.0186,-0.0847 0.10014,-0.13973 0.18566,-0.12433 z m -243.60684,11.29389 c 0.44598,0.001 0.79818,2.78414 0.78575,6.2147 -0.0124,3.43089 -0.3845,6.20932 -0.83051,6.20808 -0.44598,-0.001 -0.79818,-2.78415 -0.78575,-6.21471 0.0124,-3.43089 0.3845,-6.20931 0.83051,-6.20807 z m 196.25639,8.82723 c 2.51799,-0.0191 4.80526,0.13402 5.9793,0.2039 4.88253,0.28574 7.7404,8.51085 9.71578,12.27525 1.76416,3.37925 1.15539,6.96918 -1.15542,9.57816 -7.68616,8.69662 -16.46974,9.91016 -26.35075,3.64031 -3.77682,-2.39365 -5.84696,-5.87155 -6.2114,-10.43521 -0.033,-0.40583 0.0615,-0.78268 0.28513,-1.13055 2.4599,-3.85134 4.89526,-7.65298 7.30547,-11.40495 1.39767,-2.18191 6.23523,-2.69487 10.43189,-2.72691 z m -145.87567,4.80069 c 0.58702,-0.0237 0.90847,0.67493 0.50891,1.10568 -12.41131,12.99524 11.282,25.2956 17.74233,11.49282 2.01265,-4.29862 0.48439,-8.39781 -2.48488,-11.71495 -0.40585,-0.44725 -0.31122,-0.66301 0.28512,-0.64649 l 6.60924,0.12432 c 0.37762,0.009 0.73356,0.18563 0.96975,0.48404 5.49129,7.05669 1.20528,16.56102 -5.47868,20.8472 -13.92702,8.94509 -33.81788,-3.65267 -25.84185,-20.74773 0.15737,-0.3313 0.41801,-0.50565 0.78244,-0.52217 z m 8.00669,2.47328 c 3.7664,-0.0657 6.86745,2.59491 6.92585,5.94285 0.0585,3.34788 -2.9473,6.11583 -6.71367,6.18155 -3.76643,0.0657 -6.86747,-2.59491 -6.92586,-5.94284 -0.0585,-3.34789 2.94728,-6.11582 6.71368,-6.18156 z m 180.43698,0.95651 c 1.70619,0.0165 2.82842,0.86984 3.36678,2.55947 0.39889,1.24779 -0.48131,2.53745 -1.78866,2.62081 l -4.87032,0.31165 c -0.704,0.0414 -0.85839,-0.22916 -0.46083,-0.80896 l 2.79653,-4.17406 c 0.23192,-0.33959 0.55065,-0.50891 0.9565,-0.50891 z m -230.6967,3.7265 h 22.68558 c 0.53836,0 0.79896,0.26893 0.78243,0.80729 -0.0994,4.36073 -2.35966,6.65991 -6.84463,6.82142 -5.5327,0.20706 -11.06582,0.23197 -16.59851,0.0747 -0.4804,-0.0165 -0.70783,-0.26557 -0.68297,-0.74596 0,-0.0994 0.0248,-0.19899 0.0747,-0.29839 0.0332,-0.0662 0.0497,-0.13598 0.0497,-0.21052 l -0.0497,-5.85167 c -0.009,-0.39756 0.18595,-0.59677 0.58351,-0.59677 z m -5.89312,3.44302 c 0.85082,-0.001 1.54207,0.68753 1.54332,1.53835 l 0.004,1.21674 c 0.001,0.85078 -0.68758,1.54209 -1.53834,1.54332 l -13.31794,0.0232 c -0.85081,10e-4 -1.54207,-0.68753 -1.54331,-1.53833 l -0.004,-1.21676 c -0.001,-0.85077 0.68758,-1.54207 1.53835,-1.54331 z"
           sodipodi:nodetypes="ccccccccccccccccsscccccccccccccccscccssscscccccccccccscccccscccccsssccscccccccccccssssccccccccscccccccccccsccsccccccccccccsccscccccccscccscccccccccsccccccscccccccscccccccccccsssssccccccccsccccsccscccccccccc" />
        <path
           fill="#f5f5f5"
           d="M 371.15162,53.30114 176.13621,53.20175 a 0.49694952,0.49694952 0 0 1 -0.44726,-0.69573 c 2.02507,-4.398003 5.55341,-5.044037 10.38625,-5.044037 q 88.85457,-0.03727 177.70914,-0.04969 5.67765,0 8.18725,4.484969 a 0.94420409,0.94420409 0 0 1 -0.81997,1.403883 z"
           id="path2466"
           style="stroke-width:1.24237" />
        <path
           fill="#f5f5f5"
           d="m 379.61219,90.671746 c 2.59656,-0.0745 20.35008,-1.83872 18.71015,3.37925 a 1.7765945,1.7765945 0 0 1 -1.68963,1.22995 l -230.03793,-0.0124 a 3.081087,3.0686633 6.9 0 1 -2.99413,-3.80166 q 2.9817,-12.18769 6.32369,-25.704717 c 1.61508,-6.584581 4.4477,-7.739989 11.19379,-7.739989 q 95.52612,-0.03727 191.05224,0 4.96949,0 8.18724,4.124681 0.63361,0.832391 -0.40998,0.832391 h -7.61575 a 0.80754297,0.80754297 0 0 0 -0.74543,1.13056 l 9.09418,20.449472 a 0.96905156,0.9814753 60.6 0 1 -0.33544,1.192682 q -2.14931,1.50327 -1.61509,4.21164 0.14909,0.733 0.88209,0.70816 z M 315.2607,71.259901 a 8.7463115,8.7463115 0 0 0 -8.76147,-8.73103 l -46.34054,0.08088 a 8.7463115,8.7463115 0 0 0 -8.73103,8.761468 l 0.0178,10.13777 a 8.7463115,8.7463115 0 0 0 8.76147,8.731027 l 46.34054,-0.0809 a 8.7463115,8.7463115 0 0 0 8.73103,-8.761463 z M 192.70947,88.435466 q 0.49695,-0.36028 1.16783,-0.36028 c 0.64604,1.70205 1.32934,2.53444 3.29229,2.54686 q 17.86534,0.0249 35.70583,-0.0248 c 10.73411,-0.0373 10.90804,-6.870332 10.70926,-16.138441 -0.2112,-9.44204 -4.72102,-11.404991 -13.59157,-11.454686 q -15.41786,-0.07454 -30.83572,0 c -11.95163,0.06212 -17.85291,4.211647 -19.71647,16.28752 q -0.74542,4.820411 0.96905,7.628177 c 1.87599,3.05624 9.8396,6.39822 12.2995,1.51569 z m 160.22895,-0.18635 7.98846,0.5218 c 0.19878,2.80776 4.89496,1.86356 6.85791,1.86356 6.06278,-0.0124 8.62207,-3.47865 6.37338,-9.19357 q -3.09351,-7.87665 -6.24914,-15.268774 a 5.2428174,5.2303937 78.5 0 0 -4.82041,-3.1929 H 328.56305 A 5.4664447,5.4788684 0 0 0 323.0966,68.4581 v 16.883856 a 5.2800886,5.2800886 0 0 0 5.28009,5.28009 h 23.03361 a 1.1429839,1.1181364 14.7 0 0 0.98148,-0.55907 q 0.43483,-0.733 0.54664,-1.81386 z"
           id="path2468"
           style="fill:#efbe30;fill-opacity:1;stroke-width:1.24237" />
        <path
           fill="#1f1d1d"
           d="m 315.27847,81.397672 a 8.7463115,8.7463115 0 0 1 -8.73103,8.761464 l -46.34054,0.0809 a 8.7463115,8.7463115 0 0 1 -8.76147,-8.731028 l -0.0178,-10.13777 a 8.7463115,8.7463115 0 0 1 8.73103,-8.761468 l 46.34054,-0.08088 a 8.7463115,8.7463115 0 0 1 8.76147,8.73103 z m -59.61792,-8.814891 c -0.69573,5.342207 -1.96295,13.641265 5.77704,13.666115 q 23.02119,0.0497 45.19756,0.0124 a 4.6589017,4.6589017 0 0 0 4.6589,-4.658901 l 0.0249,-9.069329 c 0.16151,-4.634054 -2.68353,-6.112479 -6.99457,-6.112479 q -21.50549,-0.04969 -43.03582,-0.01242 -6.07521,0.01242 -5.62796,6.174598 z"
           id="path2470"
           style="fill:#000000;stroke-width:1.24237" />
        <path
           fill="#1f1d1d"
           d="m 203.29436,86.584336 c 10.38625,0.36442 18.77654,0.53008 29.71772,0.49695 8.26178,-0.0373 6.44792,-9.355078 6.08763,-14.597895 -0.14908,-5.143427 -5.46644,-5.752191 -8.95751,-5.777038 -4.58023,-0.02485 -14.76769,0.07864 -30.5624,0.310593 -10.54775,0.161509 -13.36794,2.397782 -15.92723,12.137992 -1.5851,6.022048 1.00759,7.221928 3.82032,7.585758 1.46782,0.18986 3.45024,0.0763 4.36179,0.0552 0.71931,-0.0166 1.89303,0.24783 1.94761,1.99846 0.0552,1.76925 -1.19452,1.8086 -2.22616,1.82628 -8.88987,0.15239 -10.32827,-0.83915 -11.52124,-3.54006 -0.88615,-2.00623 -1.09092,-4.575313 -0.59397,-7.788924 1.86356,-12.075873 7.76484,-16.225402 19.71647,-16.287521 10.27857,-0.04969 20.55715,-0.04969 30.83572,0 8.87055,0.04969 13.38037,2.012646 13.59157,11.454687 0.19878,9.268108 0.0248,16.101168 -10.70926,16.138438 -11.89366,0.0332 -21.52219,0.0414 -33.43242,0.0248 -0.89125,0.0411 -0.93321,-1.25007 -0.89555,-1.92415 0.0524,-0.9375 -0.12138,-1.89787 1.1753,-1.99704 0.71344,-0.0545 2.1681,-0.11007 3.57161,-0.11653 z"
           id="path2472"
           style="fill:#000000;stroke-width:1.24237"
           sodipodi:nodetypes="ccccccsssssccccccssc" />
        <path
           fill="#1f1d1d"
           d="m 360.92688,88.770916 q 0.28575,-0.0497 -0.0994,-0.65846 2.49718,-1.40388 6.1746,-1.5157 2.82019,0.86966 4.01287,-0.6833 0.38514,-0.48453 0.16151,-1.08087 -4.79556,-12.585246 -6.83306,-16.796893 -0.84481,-1.7269 -2.98169,-0.770272 l -32.82352,-0.19878 q -0.67088,0 -0.96905,0.59634 -0.733,1.466001 -0.54665,3.913477 l -0.11181,13.057348 a 2.1368829,2.1368829 0 0 0 2.09961,2.14931 q 11.18137,0.19878 21.65458,0.0994 c 1.08086,-0.0124 1.82629,0.45968 2.27354,1.36661 q -0.11181,1.08086 -0.54664,1.81386 a 1.1429839,1.1181364 14.7 0 1 -0.98148,0.55907 h -23.03361 a 5.2800886,5.2800886 0 0 1 -5.28009,-5.28009 V 68.4581 a 5.4664447,5.4788684 0 0 1 5.46645,-5.478868 h 34.52557 a 5.2428174,5.2303937 78.5 0 1 4.82041,3.1929 q 3.15564,7.392124 6.24915,15.268774 c 2.24869,5.71492 -0.3106,9.18114 -6.37338,9.19357 -1.96295,0 -6.65913,0.9442 -6.85791,-1.86356 z"
           id="path2474"
           style="fill:#000000;stroke-width:1.24237" />
        <path
           fill="#555656"
           d="m 311.3189,72.533086 -55.65835,0.04969 q -0.44725,-6.162174 5.62796,-6.174598 21.53033,-0.03727 43.03582,0.01242 c 4.31104,0 7.15608,1.478425 6.99457,6.112479 z"
           id="path2476"
           style="stroke-width:1.24237" />
        <path
           fill="#555656"
           d="m 361.36172,67.265421 -3.06867,2.385358 a 0.86966166,0.86966166 0 0 0 -0.22362,1.118136 l 8.93266,15.827841 q -3.67742,0.11182 -6.1746,1.5157 l -8.19966,-15.827845 q -0.3106,-0.596339 -0.98148,-0.596339 L 327.0225,71.576458 q -0.18635,-2.447476 0.54665,-3.913477 0.29817,-0.59634 0.96905,-0.59634 z"
           id="path2478"
           style="stroke-width:1.24237" />
        <path
           fill="#a0a1a4"
           d="m 367.00209,86.596756 -8.93266,-15.827841 a 0.86966166,0.86966166 0 0 1 0.22362,-1.118136 l 3.06867,-2.385358 q 2.13688,-0.956628 2.98169,0.770272 2.0375,4.211647 6.83306,16.796893 0.22363,0.59634 -0.16151,1.08087 -1.19268,1.55296 -4.01287,0.6833 z"
           id="path2480"
           style="stroke-width:1.24237" />
        <path
           fill="#a0a1a4"
           d="m 384.53199,84.186552 -6.4355,-16.4863 q -0.27332,-0.683306 0.45968,-0.683306 h 4.02529 q 0.63361,0 0.95663,0.546645 l 10.64714,18.312585 q 0.40998,0.70816 -0.40998,0.70816 l -8.79601,0.0621 q -0.69573,0 -0.733,-0.69573 -0.0124,-0.33544 0.19878,-0.70816 0.29817,-0.50937 0.087,-1.056014 z"
           id="path2482"
           style="stroke-width:1.24237" />
        <path
           fill="#a0a1a4"
           d="m 327.0225,71.576458 24.62385,0.111814 q 0.67088,0 0.98148,0.596339 l 8.19966,15.827845 q 0.38514,0.60876 0.0994,0.65846 l -7.98846,-0.5218 c -0.44725,-0.90693 -1.19268,-1.37904 -2.27354,-1.36661 q -10.47321,0.0994 -21.65458,-0.0994 a 2.1368829,2.1368829 0 0 1 -2.09961,-2.14931 z"
           id="path2484"
           style="stroke-width:1.24237" />
        <path
           fill="#a0a1a4"
           d="m 239.09971,72.483391 c 0.36029,5.242817 2.17415,14.560625 -6.08763,14.597895 q -16.41176,0.0497 -31.99113,-0.49695 -4.70859,-6.124905 -4.32346,-11.951638 a 2.2114254,2.2238491 1.7 0 1 2.21143,-2.087188 z"
           id="path2486"
           style="stroke-width:1.24237" />
        <path
           fill="#a0a1a4"
           d="m 311.3189,72.533086 -0.0249,9.069329 a 4.6589017,4.6589017 0 0 1 -4.6589,4.658901 q -22.17637,0.0373 -45.19756,-0.0124 c -7.73999,-0.0249 -6.47277,-8.323908 -5.77704,-13.666115 z"
           id="path2488"
           style="stroke-width:1.24237" />
        <path
           fill="#e38b22"
           d="m 246.35517,102.90913 -83.20177,0.19878 v -3.602884 q 0.0124,-0.47211 0.48453,-0.47211 l 81.98424,0.39756 q 0.65846,0 0.67088,0.658464 z"
           id="path2490"
           style="fill:#a0a1a4;fill-opacity:1;stroke-width:1.24237" />
        <path
           fill="#e38b22"
           d="m 318.40043,102.41218 q -0.86966,-1.06844 -2.2487,0.36029 a 1.4660011,1.4287299 21.7 0 1 -1.08086,0.44725 l -64.65313,-0.60876 0.0248,-2.708384 q 0,-0.62118 0.62119,-0.62118 l 66.74032,0.0248 q 0.62119,0 0.62119,0.62118 z"
           id="path2492"
           style="fill:#a0a1a4;fill-opacity:1;stroke-width:1.24237" />
        <path
           fill="#e38b22"
           d="m 397.81296,102.66065 q -1.4163,-0.4224 -2.90715,0.43484 -0.53422,0.32301 -1.16783,0.28574 l -6.58458,-0.33544 -1.01875,-3.081094 q -0.2609,-0.80754 0.58391,-0.80754 l 11.01986,0.0124 q 0.7827,0 0.62119,0.77028 z"
           id="path2494"
           style="fill:#a0a1a4;fill-opacity:1;stroke-width:1.24237" />
        <path
           fill="#e38b22"
           d="m 382.41995,102.88428 -57.34797,0.23605 q -0.63361,0 -1.10572,0.39756 -1.54054,1.3045 -1.25479,3.56562 l 0.17393,-7.243044 q 0.0124,-0.5218 0.53422,-0.5218 h 57.47221 q 0.55907,0 0.70815,0.54664 z"
           id="path2496"
           style="fill:#a0a1a4;fill-opacity:1;stroke-width:1.24237" />
        <path
           fill="#efbe30"
           d="m 318.40043,102.41218 0.0124,34.4386 c 0,0.4307 -0.2112,0.64604 -0.63361,0.64604 -16.37448,0.0414 -32.71584,0.0786 -49.02407,0.11181 -1.62337,0 -2.9481,0.005 -4.34927,-0.0112 l -4.12031,-0.0323 c -2.7142,0.0154 -5.42421,0.0302 -9.13485,-0.006 -0.51351,0.0414 -0.77028,-0.19465 -0.77028,-0.70816 l 0.0373,-34.23982 64.65313,0.60876 c 0.41105,0.007 0.80343,-0.15444 1.08086,-0.44725 0.91936,-0.95249 1.66892,-1.07258 2.2487,-0.36029 z m -7.5027,7.26888 c 0.0137,-1.57119 -1.24887,-2.85603 -2.82006,-2.86976 l -8.77091,-0.0765 c -1.57119,-0.0137 -2.85603,1.24887 -2.86976,2.82007 l -0.002,0.34786 c -0.0137,1.57119 1.24887,2.85603 2.82006,2.86976 l 8.77091,0.0765 c 1.57119,0.0137 2.85603,-1.24887 2.86976,-2.82006 z"
           id="path2498"
           sodipodi:nodetypes="ccccccccccccccscccscc"
           style="fill:#f5f5f5;fill-opacity:1;stroke-width:1.24237" />
        <path
           fill="#efbe30"
           d="m 397.81296,102.66065 q -2.65868,13.04493 -5.19312,25.84138 -0.5218,2.59656 -1.27964,3.9756 -0.80755,1.466 -0.63362,-0.21121 1.54055,-14.53577 -3.55318,-29.22063 l 6.58458,0.33544 q 0.63361,0.0373 1.16783,-0.28574 1.49085,-0.85724 2.90715,-0.43484 z"
           id="path2500"
           style="fill:#f5f5f5;fill-opacity:1;stroke-width:1.24237" />
        <path
           fill="#efbe30"
           d="m 246.35517,102.90913 -0.0994,33.99135 a 0.77027175,0.77027175 0 0 1 -1.466,0.31059 c -4.01287,-8.88297 -4.37315,-12.12557 -15.34331,-12.34919 q -13.30583,-0.27333 -26.59923,0.087 c -5.23039,0.14909 -8.16239,1.90083 -10.37382,6.36096 q -0.31059,0.60876 -0.9939,0.60876 l -27.65524,0.0373 q -0.67088,0 -0.67088,-0.68331 v -28.16461 z"
           id="path2502"
           style="fill:#f5f5f5;fill-opacity:1;stroke-width:1.24237" />
        <path
           fill="#efbe30"
           d="m 382.41995,102.88428 q 6.77094,16.32479 3.36683,33.34532 a 1.515696,1.515696 0 0 1 -1.44115,1.21752 l -8.063,0.18636 a 0.91935661,0.91935661 0 0 1 -0.81997,-0.45968 q -3.55319,-6.34853 -7.10638,-12.59767 c -3.27987,-5.77704 -14.84637,-4.68375 -19.79101,-4.42285 -7.92635,0.39756 -12.0883,10.67199 -15.5918,16.70993 a 1.3417637,1.32934 15 0 1 -1.1554,0.65845 h -8.38603 q -0.74542,0 -0.733,-0.74542 l 0.0124,-29.69273 q -0.28575,-2.26112 1.25479,-3.56562 0.47211,-0.39756 1.10572,-0.39756 z m -42.40246,6.69602 a 2.9320022,2.9320022 0 0 0 -2.93722,-2.92678 l -8.74619,0.0152 a 2.9320022,2.9320022 0 0 0 -2.92691,2.93722 l 5e-4,0.32301 a 2.9320022,2.9320022 0 0 0 2.93722,2.92679 l 8.74618,-0.0152 a 2.9320022,2.9320022 0 0 0 2.92691,-2.93722 z"
           id="path2504"
           style="fill:#f5f5f5;fill-opacity:1;stroke-width:1.24237" />
        <path
           fill="#f5f5f5"
           d="m 401.56493,104.01484 a 0.16150859,0.16150859 0 0 1 0.18636,-0.12424 l 0.0745,0.0124 a 1.5281198,2.5095951 11.2 0 1 1.00632,2.75807 l -0.0621,0.34786 a 1.5281198,2.5095951 11.2 0 1 -1.98779,2.16173 l -0.0745,-0.0124 a 0.16150859,0.16150859 0 0 1 -0.12423,-0.19878 z"
           id="path2506"
           style="fill:#efbe30;fill-opacity:1;stroke-width:1.24237" />
        <path
           fill="#1f1d1d"
           d="m 340.01798,109.90332 a 2.9320022,2.9320022 0 0 1 -2.92691,2.93722 l -8.74618,0.0152 a 2.9320022,2.9320022 0 0 1 -2.93722,-2.92679 l -5e-4,-0.32301 a 2.9320022,2.9320022 0 0 1 2.92691,-2.93722 l 8.74619,-0.0152 a 2.9320022,2.9320022 0 0 1 2.93722,2.92678 z m -2.09961,-0.2117 a 1.0187465,1.0187465 0 0 0 -1.01166,-1.02583 l -8.3982,-0.0586 a 1.0187465,1.0187465 0 0 0 -1.02583,1.01167 l -7.5e-4,0.0994 a 1.0187465,1.0187465 0 0 0 1.01167,1.02583 l 8.3982,0.0586 a 1.0187465,1.0187465 0 0 0 1.02583,-1.01167 z"
           id="path2508"
           style="stroke-width:1.24237" />
        <path
           fill="#1f1d1d"
           d="m 310.89475,110.02893 a 2.845036,2.845036 0 0 1 -2.86976,2.82006 l -8.77091,-0.0765 a 2.845036,2.845036 0 0 1 -2.82006,-2.86976 l 0.002,-0.34786 a 2.845036,2.845036 0 0 1 2.86976,-2.82007 l 8.77091,0.0765 a 2.845036,2.845036 0 0 1 2.82007,2.86976 z m -2.04817,-0.38613 a 1.0187465,1.0187465 0 0 0 -1.01875,-1.01875 h -8.54753 a 1.0187465,1.0187465 0 0 0 -1.01875,1.01875 v 0.14908 a 1.0187465,1.0187465 0 0 0 1.01875,1.01875 h 8.54753 a 1.0187465,1.0187465 0 0 0 1.01875,-1.01875 z"
           id="path2510"
           style="stroke-width:1.24237" />
        <rect
           fill="#f5f5f5"
           x="298.2616"
           y="108.62402"
           width="10.585026"
           height="2.1865778"
           rx="1.0187465"
           id="rect2512"
           style="fill:#efbe30;fill-opacity:1;stroke-width:1.24237" />
        <rect
           fill="#f5f5f5"
           x="328.23993"
           y="106.31113"
           transform="rotate(0.4)"
           width="10.43594"
           height="2.136883"
           rx="1.0187465"
           id="rect2514"
           style="fill:#efbe30;fill-opacity:1;stroke-width:1.24237" />
        <ellipse
           fill="#e38b22"
           cx="120.84295"
           cy="-158.54459"
           transform="rotate(90.2)"
           rx="6.2118688"
           ry="0.80754292"
           id="ellipse2516"
           style="stroke-width:1.24237" />
        <path
           fill="#555656"
           d="m 342.58945,149.70935 q -5.66523,-3.59046 -6.21187,-10.43594 -0.0497,-0.60876 0.28574,-1.13056 3.68985,-5.77704 7.30516,-11.40499 c 2.23628,-3.49107 13.28098,-2.70837 16.41176,-2.52202 4.88253,0.28575 7.73999,8.51026 9.71536,12.27465 1.76417,3.37926 1.15541,6.96972 -1.1554,9.57871 q -11.52923,13.04492 -26.35075,3.64015 z M 364.86968,137.915 a 10.920466,10.150194 3.5 0 0 -10.28039,-10.79797 10.920466,10.150194 3.5 0 0 -11.51979,9.46465 10.920466,10.150194 3.5 0 0 10.2804,10.79797 10.920466,10.150194 3.5 0 0 11.51978,-9.46465 z"
           id="path2518"
           style="stroke-width:1.24237" />
        <path
           fill="#1f1d1d"
           d="m 364.86968,137.915 a 10.920466,10.150194 3.5 0 1 -11.51978,9.46465 10.920466,10.150194 3.5 0 1 -10.2804,-10.79797 10.920466,10.150194 3.5 0 1 11.51979,-9.46465 10.920466,10.150194 3.5 0 1 10.28039,10.79797 z m -4.16655,-0.57808 a 6.0503604,6.8206321 89.7 0 0 -6.85219,-6.01458 6.0503604,6.8206321 89.7 0 0 -6.78882,6.0859 6.0503604,6.8206321 89.7 0 0 6.85219,6.01458 6.0503604,6.8206321 89.7 0 0 6.78882,-6.0859 z"
           id="path2520"
           style="fill:#000000;stroke-width:1.24237" />
        <path
           fill="#555656"
           d="m 226.67597,150.50447 c -13.92701,8.94509 -33.81741,-3.65258 -25.84137,-20.74764 q 0.23605,-0.49695 0.78269,-0.5218 l 6.9076,-0.42241 a 0.65845811,0.65845811 0 0 1 0.50937,1.10572 c -12.41131,12.99523 11.28076,25.29473 17.7411,11.49195 2.01265,-4.29861 0.48453,-8.39844 -2.48475,-11.71558 q -0.60876,-0.67088 0.28575,-0.64603 l 6.60943,0.12423 a 1.279645,1.2672213 71.3 0 1 0.96905,0.48453 c 5.49129,7.05668 1.2051,16.56084 -5.47887,20.84703 z"
           id="path2522"
           style="stroke-width:1.24237" />
        <ellipse
           fill="#a0a1a4"
           cx="214.20755"
           cy="141.10764"
           transform="rotate(-1)"
           rx="6.820632"
           ry="6.0627842"
           id="ellipse2524"
           style="fill:#efbe30;fill-opacity:1;stroke-width:1.24237" />
        <ellipse
           fill="#a0a1a4"
           cx="353.15848"
           cy="139.22362"
           transform="rotate(-0.3)"
           rx="6.820632"
           ry="6.0503602"
           id="ellipse2526"
           style="fill:#efbe30;fill-opacity:1;stroke-width:1.24237" />
        <path
           fill="#f5f5f5"
           d="m 396.96815,132.24158 q 2.55929,0.0248 3.36683,2.55929 a 2.0126456,2.0126456 0 0 1 -1.78902,2.6214 l -4.8701,0.3106 q -1.05602,0.0621 -0.45968,-0.80754 l 2.79534,-4.17438 q 0.34787,-0.50937 0.95663,-0.50937 z"
           id="path2528"
           style="fill:#efbe30;fill-opacity:1;stroke-width:1.24237" />
        <path
           fill="#f5f5f5"
           d="m 165.73754,142.41662 -0.0497,-5.85158 q -0.0124,-0.59634 0.58392,-0.59634 h 22.68574 q 0.80755,0 0.7827,0.80754 c -0.0994,4.36073 -2.36051,6.65912 -6.84548,6.82063 q -8.29906,0.3106 -16.59811,0.0745 -0.72058,-0.0248 -0.68331,-0.74542 0,-0.14908 0.0745,-0.29817 0.0497,-0.0994 0.0497,-0.2112 z"
           id="path2530"
           style="stroke-width:1.24237" />
        <rect
           fill="#f5f5f5"
           x="145.27666"
           y="139.69057"
           transform="rotate(-0.1)"
           width="16.399334"
           height="4.2986135"
           rx="1.5405436"
           id="rect2532"
           style="stroke-width:1.24237" />
      </g>
    </g>
  </g>
</svg>
